<?xml version="1.0" standalone="no"?>
<!DOCTYPE svg PUBLIC "-//W3C//DTD SVG 20010904//EN"
 "http://www.w3.org/TR/2001/REC-SVG-20010904/DTD/svg10.dtd">
<svg version="1.0" xmlns="http://www.w3.org/2000/svg"
 width="240.000000pt" height="240.000000pt" viewBox="0 0 240.000000 240.000000"
 preserveAspectRatio="xMidYMid meet">

<g transform="translate(0.000000,240.000000) scale(0.100000,-0.100000)"
fill="#FFC107" stroke="none">
<path d="M1120 2325 c-8 -2 -49 -9 -90 -15 -75 -12 -235 -58 -228 -65 2 -2 40
6 83 18 69 18 106 21 260 21 152 0 192 -3 257 -22 309 -85 547 -270 687 -533
l44 -82 14 26 c15 30 50 43 84 32 l22 -7 -23 38 c-202 334 -506 539 -865 583
-82 10 -208 13 -245 6z"/>
<path d="M610 2223 c-73 -28 -267 -201 -351 -313 -52 -69 -60 -102 -32 -132
16 -18 14 -23 -26 -105 -112 -225 -151 -451 -117 -682 20 -133 36 -177 69
-192 47 -21 88 25 74 84 -3 12 -15 58 -27 102 -33 120 -38 319 -12 450 21 107
73 255 99 281 10 10 25 13 44 9 25 -6 32 0 76 57 87 113 187 208 302 285 2 2
2 6 -2 9 -18 18 -213 -136 -277 -220 -32 -41 -60 -59 -60 -38 0 4 25 38 55 74
55 68 136 140 222 199 27 19 41 35 34 37 -30 10 -216 -141 -304 -247 -39 -47
-60 -49 -36 -5 23 44 159 177 242 238 84 62 97 85 23 42 -69 -41 -195 -149
-256 -221 -34 -40 -58 -61 -64 -55 -22 22 163 213 291 298 29 19 53 39 53 43
0 5 -1 9 -2 8 -2 0 -10 -3 -18 -6z"/>
<path d="M1065 1890 c-347 -48 -605 -373 -569 -717 l8 -78 8 70 c23 181 66
298 153 413 154 203 442 318 675 268 264 -56 448 -257 496 -541 14 -83 15
-110 5 -183 -38 -270 -216 -483 -476 -569 -70 -24 -96 -27 -210 -27 -93 1
-144 5 -180 17 -64 21 -71 13 -11 -13 97 -41 164 -52 291 -48 102 4 132 9 201
35 345 129 529 482 438 838 -35 137 -148 298 -273 389 -153 112 -376 171 -556
146z"/>
<path d="M2166 1668 c-22 -31 -20 -51 13 -150 59 -176 76 -378 46 -554 -28
-163 -81 -301 -118 -308 -98 -20 -132 -32 -170 -57 -88 -58 -198 -243 -200
-340 -2 -43 2 -54 23 -71 60 -48 223 7 329 111 100 97 132 189 101 292 -13 45
-12 47 24 124 79 165 114 308 123 490 8 170 -25 380 -71 447 -28 43 -76 50
-100 16z"/>
<path d="M233 807 c-13 -22 -47 -37 -71 -30 -28 7 -28 3 4 -60 110 -220 311
-421 532 -531 133 -67 343 -116 497 -116 98 0 246 24 335 54 77 26 75 26 -45
0 -222 -48 -483 -15 -695 90 -217 107 -412 309 -505 522 -38 87 -40 90 -52 71z"/>
</g>
</svg>
